PathFileType	4	(X/Y/Z)	Patient4_TMGait_0pt7_01_left_04.trc.trc
DataRate	CameraRate	NumFrames	NumMarkers	Units	OrigDataRate	OrigDataStartFrame	OrigNumFrames
87.500000000000	87.500000000000	5	33	mm	87.500000000000	36	       141
Frame#	Time	Sacral			L.Shoulder			Chest			R.Shoulder			Neck			R.ASIS			L.ASIS			R.Thigh.Superior			R.Thigh.Lateral			R.Thigh.Inferior			R.Patella			L.Thigh.Superior			L.Thigh.Lateral			L.Thigh.Inferior			L.Patella			L.Shank.Superior			L.Shank.Lateral			L.Shank.Inferior			R.Shank.Superior			R.Shank.Lateral			R.Shank.Inferior			R.Heel			R.Midfoot.Superior			R.Midfoot.Lateral			R.Toe			L.Heel			L.Midfoot.Lateral			L.Midfoot.Superior			L.Toe			L.Elbow			L.Wrist			R.Elbow			R.Wrist			
		X1	Y1	Z1	X2	Y2	Z2	X3	Y3	Z3	X4	Y4	Z4	X5	Y5	Z5	X6	Y6	Z6	X7	Y7	Z7	X8	Y8	Z8	X9	Y9	Z9	X10	Y10	Z10	X11	Y11	Z11	X12	Y12	Z12	X13	Y13	Z13	X14	Y14	Z14	X15	Y15	Z15	X16	Y16	Z16	X17	Y17	Z17	X18	Y18	Z18	X19	Y19	Z19	X20	Y20	Z20	X21	Y21	Z21	X22	Y22	Z22	X23	Y23	Z23	X24	Y24	Z24	X25	Y25	Z25	X26	Y26	Z26	X27	Y27	Z27	X28	Y28	Z28	X29	Y29	Z29	X30	Y30	Z30	X31	Y31	Z31	X32	Y32	Z32	X33	Y33	Z33	

36	5.050000000000	700.870074974890	1012.386473526140	514.316402847395	896.309696391586	1431.824616671871	349.116453066277	998.198940046501	1348.947814394712	505.879312675968	924.193184032587	1428.144677268118	682.279989836112	907.464989450702	1488.330928371712	506.518536380374	919.058217814179	933.969623501756	637.970951462313	915.258370310444	954.589912328186	362.667386890755	916.049554015381	722.723999610958	624.252638882440	805.264623852411	634.424291817229	682.785876308000	877.838721924057	559.888517453119	618.218031295508	852.249052695072	461.719963358964	634.573401479468	979.986641343459	765.370570559598	397.540312349887	914.473733501160	638.265421612662	330.070721235422	1007.368796489201	572.085742335267	396.319474013907	1018.249726133103	501.539815068082	404.499331911248	998.145870398251	427.346752717364	395.766801621999	922.039365036161	306.373863750476	340.066198790200	979.586224115442	198.835726495236	411.301620555382	782.724149322764	394.204415814650	637.385536998238	665.018767672710	339.260764754257	690.780476002166	669.861832799408	228.288698531101	640.289483195038	480.677175917942	121.296523779702	600.681081319197	657.739465501855	110.224476620278	649.263335197959	549.889719515914	75.852028194809	674.993004896543	747.616552931887	35.168280675620	671.918597974523	860.907643024716	38.384451479805	445.029226870844	938.304816541365	36.808096931163	367.575485845787	1020.260264720418	97.231527415674	398.650936624208	1149.934383345629	43.228893711205	374.903281757146	762.579811035519	1113.837090978301	228.932419658977	779.441757272830	852.039774410561	219.713663311456	948.754994518076	1093.552452431602	821.661287005727	1184.422344550080	1144.866917828598	760.031225270836	
37	5.061428571429	701.943417274780	1013.261765438930	511.547552875125	896.739210449975	1433.401216634701	346.627715071525	998.735007217022	1350.641072852040	503.334563861955	924.400402143567	1429.427526248609	679.828068624265	907.642159677483	1489.679591696257	504.098747216541	920.387571744348	935.412025562359	634.605593784113	916.309943509728	955.889226293936	359.568646955733	920.752013231509	724.264868493312	621.666903530265	812.142763742310	634.396978901868	681.168428353309	885.948218267557	560.507185984904	616.519051069346	861.192726905578	460.747320352707	634.384457744844	980.482823350484	764.942059255930	393.603594949199	911.901071232257	637.973234684932	328.397006582918	1004.529191452729	571.049535452077	394.152866574694	1014.527803768346	500.817994193198	403.419611485097	993.872476804769	426.734784276905	394.883801131912	916.881505685544	306.314532977686	339.217923962662	972.986984125379	198.513244526413	411.116781896450	789.300442142192	394.412618831724	637.230538158680	669.935580905833	343.460882581336	690.818102957480	671.207581075647	232.188489953079	641.085959990850	478.852720641690	133.487176054454	601.942749959316	654.776592325208	112.826994456401	650.616419165676	545.488499706862	83.804362146193	675.771436058669	739.778961876450	34.315382941555	672.198944841514	852.902997789957	38.353228027393	444.910485544731	930.303683116308	36.758050150643	367.480114667814	1012.274830318992	97.187772041053	398.609187761517	1141.962546796188	43.101978346369	374.818372711225	767.748316235959	1113.801025616364	224.354780157136	797.034375316155	853.074789269416	214.922149738871	938.899954079104	1093.139756264619	817.883339519471	1179.391175369805	1126.577925389118	761.713891279722	
38	5.072857142857	702.879517530132	1013.884590098827	508.936755374839	897.053227746890	1434.770391986379	344.110287433895	999.101037129466	1352.219706462838	500.839110337989	924.316846185206	1430.562355433277	677.409993143381	907.583466201346	1490.855077471334	501.634822046427	921.561441602000	936.712242371355	631.437325630326	917.263387014302	956.888348286797	356.692743192222	925.915693607857	725.825030874262	619.192891488874	819.834673779539	634.149302219791	679.509236844036	894.917906187528	561.126368097985	614.602194279237	871.112093772159	459.788951928412	633.731115145325	980.736334127256	764.160038136342	390.006378297597	909.305662105558	637.600666909030	326.808589328661	1001.512266556842	569.933538342203	392.267478097437	1010.609073705605	499.982865575267	402.428564454212	989.416790798215	426.017261911676	394.014570345627	911.527663165314	306.136572174812	338.447926847052	966.302928963300	198.105060683322	410.938934366452	796.922867674235	394.575975132713	636.769566565489	675.995521024424	347.813502245350	690.624737355137	673.510050055097	236.403527173037	641.633732493546	478.381150191239	146.720756745495	602.926850859060	652.430496219400	115.961221838469	651.773324726729	541.951426509840	92.904343455014	676.415940587998	731.986028698781	33.262931647935	672.640215593568	844.839419062602	38.290483696624	444.828018997529	922.253206895548	36.660318629951	367.421675630467	1004.259802561852	97.070159590794	398.621251645836	1133.958595369753	42.868501194565	374.816042831710	772.863829288041	1113.671905506815	219.657680235171	815.172760384028	854.701830616866	210.243619001409	929.274748953541	1092.897397951090	813.788698133269	1173.406897291286	1107.408329871027	763.365947307021	
39	5.084285714286	703.658638697018	1014.267467548917	506.502200006860	897.280195465724	1435.910392936139	341.594294404760	999.312485301384	1353.639195786871	498.426365654829	923.972818905980	1431.528421092372	675.049355598415	907.320258014120	1491.845384171441	499.154318319068	922.547266548945	937.826465187902	628.487796143064	918.075211934148	957.607735587803	354.034084356999	931.461016951488	727.437256399250	616.801504831430	828.310832416537	633.740797389709	677.812699615498	904.689742767381	561.812284275603	612.457172087537	881.989818784844	458.918146730400	632.608287536477	980.696852408476	763.135718450728	386.848805871861	906.777847846109	637.231801499804	325.264353597752	998.349543977831	568.798458469148	390.649052186732	1006.526984200872	499.071620641019	401.484505512054	984.812958037765	425.224024766845	393.136114737208	906.022509887670	305.873369305478	337.715654185992	959.553159815063	197.636199189509	410.743631625409	805.588310743016	394.751092111418	635.974342924474	683.208701419628	352.326799095213	690.161845378259	676.845239205233	240.951494961052	641.888429719985	479.414291842071	160.881536692704	603.570180221924	650.835998141946	119.678910134972	652.660970483603	539.465994226087	103.106620027539	676.872230002098	724.396203518687	32.064862954070	673.197350110663	836.742805584199	38.212373609514	444.763209563106	914.174052003624	36.535824351473	367.378094055252	996.230207010326	96.908715280843	398.656595372223	1125.938086504050	42.570757244750	374.858805947116	778.020088418868	1113.414481924407	214.868628631027	833.783412835967	856.955146926088	205.715895022509	919.932170771811	1092.754330237235	809.441037043792	1166.309799922400	1087.600497633834	764.917640815664	
40	5.095714285714	704.262366620282	1014.442771755007	504.242021796242	897.441030588476	1436.818373473214	339.116333279898	999.386991330676	1354.869982292662	496.126772210535	923.408960969521	1432.317839784347	672.770939384385	906.892205430512	1492.651516149341	496.695667113131	923.322735172843	938.732004351614	625.767372340990	918.711364922680	958.088509711962	351.577588962164	937.284069990411	729.149850282965	614.449076602307	837.499400385756	633.262508047876	676.096753376124	915.162033075281	562.655204048004	610.098546636055	893.772338670190	458.232708552508	631.061950838726	980.332482109765	761.976798139059	384.170727937405	904.343087006779	636.919418152742	323.734940557853	995.056349562808	567.684477370293	389.254534219009	1002.302325006481	498.116172871099	400.554263608201	980.081734729343	424.383755978469	392.233051095915	900.394860837666	305.555763314897	336.992218837809	952.746065290486	197.130845447495	410.515151789573	815.262961627339	395.014914026750	634.849191364343	691.551842103085	357.002720204035	689.412812378226	681.278511628227	245.831845835553	641.822535189814	482.061516114344	175.754299349577	603.831989288831	650.159773435136	123.990624546672	653.207900442851	538.229834934368	114.260630859094	677.086926794463	717.259491161979	30.824249098762	673.781258966089	828.634071635928	38.130985907727	444.701646728087	906.082457376470	36.401634689201	367.332187512153	988.195567287842	96.730520620368	398.689577287727	1117.911960553986	42.250197030300	374.913498072234	783.314612834037	1113.013915750142	210.024414147558	852.790235304898	859.870767692019	201.378715783219	910.896906185496	1092.652077166723	804.914892502371	1157.967388337542	1067.405295788009	766.297373965257	
